{"title":"The Thing Called Love 1993 [Director's Cut] DVDRip XviD titler","uid":8542062,"size":956951884,"categoryP":"video","categoryS":"movies","magnet":"?xt=urn:btih:46939f0d0513ba5ca6c13edd399b122ee5589881&amp;dn=The+Thing+Called+Love+1993+%5BDirector%27s+Cut%5D+DVDRip+XviD+titler&amp;tr=udp%3A%2F%2Ftracker.openbittorrent.com%3A80&amp;tr=udp%3A%2F%2Fopen.demonii.com%3A1337&amp;tr=udp%3A%2F%2Ftracker.coppersurfer.tk%3A6969&amp;tr=udp%3A%2F%2Fexodus.desync.com%3A6969","seeders":2,"leechers":3,"uploader":"movieZ.freak","files":5,"time":1370421518,"description":"The Thing Called Love 1993 [Director's Cut] DVDRip XviD titler\n\n\nSOURCE: DVD-R (vobs only)\n\n &lt;a href=&quot;\nhttp://www.imdb.com/title/tt0108327/&quot; rel=&quot;nofollow&quot; target=&quot;_NEW&quot;&gt;\nhttp://www.imdb.com/title/tt0108327/&lt;/a&gt;\n\n\n- SAMPLE: Yes\n\n- SUBTITLES: English, Serbian\n\n- LANGUAGE: English\n\n\nDIRECTOR: Peter Bogdanovich\n\n\nCAST:\n-------\nRiver Phoenix, Samantha Mathis, Dermot Mulroney, Sandra Bullock, Anthony Clark\n\n\nPLOT:\n--------\nMiranda Presley is an aspiring singer/songwriter from New York City who loves country music and decides to take her chances in Nashville, Tennessee, where she hopes to become a star. After arriving in Music City after a long bus ride, Miranda makes her way to the Bluebird Cafe, a local watering hole with a reputation as a showcase for new talent. The bar's owner, Lucy, takes a shine to the plucky newcomer and gives her a job as a waitress.\n\n\nGeneral\n---------\nFormat : AVI\nFormat/Info : Audio Video Interleave\nFile size : 900 MiB\nDuration : 1h 58mn\nOverall bit rate : 1062 Kbps\nWriting application : VirtualDubMod 1.5.10.3\nWriting library : VirtualDubMod build 2550\n\nVideo\n--------\nFormat : MPEG-4 Visual\nFormat profile : Advanced Simple@L5\nFormat settings, BVOP : 1\nFormat settings, QPel : No\nFormat settings, GMC : No warppoints\nFormat settings, Matrix : Custom\nCodec ID : XVID\nCodec ID/Hint : XviD\nDuration : 1h 58mn\nBit rate : 927 Kbps\nWidth : 640 pixels\nHeight : 352 pixels\nDisplay aspect ratio : 16:9\nFrame rate : 25.000 fps\nColor space : YUV\nChroma subsampling : 4:2:0\nBit depth : 8 bits\nScan type : Progressive\nCompression mode : Lossy\nBits/(Pixel*Frame) : 0.165\nStream size : 785 MiB (87%)\nWriting library : XviD 64\n\nAudio\n---------\nFormat : MPEG Audio\nFormat version : Version 1\nFormat profile : Layer 3\nMode : Joint stereo\nCodec ID : 55\nCodec ID/Hint : MP3\nDuration : 1h 58mn\nBit rate mode : Constant\nBit rate : 128 Kbps\nChannel(s) : 2 channels\nSampling rate : 48.0 KHz\nCompression mode : Lossy\nStream size : 108 MiB (12%)\nAlignment : Aligned on interleaves\nInterleave, duration : 80 ms (2.00 video frames)\nInterleave, preload duration : 504 ms\nWriting library : LAME3.99.5\nLanguage : English\n\n","torrent":{"xt":"urn:btih:46939f0d0513ba5ca6c13edd399b122ee5589881","amp;dn":"The+Thing+Called+Love+1993+%5BDirector%27s+Cut%5D+DVDRip+XviD+titler","amp;tr":["udp%3A%2F%2Ftracker.openbittorrent.com%3A80","udp%3A%2F%2Fopen.demonii.com%3A1337","udp%3A%2F%2Ftracker.coppersurfer.tk%3A6969","udp%3A%2F%2Fexodus.desync.com%3A6969"],"infoHash":"46939f0d0513ba5ca6c13edd399b122ee5589881","infoHashBuffer":{"type":"Buffer","data":[70,147,159,13,5,19,186,92,166,193,62,221,57,155,18,46,229,88,152,129]},"announce":[],"urlList":[]}}